<?xml version="1.0" encoding="UTF-8" standalone="no"?><!DOCTYPE svg PUBLIC "-//W3C//DTD SVG 1.1//EN" "http://www.w3.org/Graphics/SVG/1.1/DTD/svg11.dtd"><svg width="100%" height="100%" viewBox="0 0 11 9" version="1.1" xmlns="http://www.w3.org/2000/svg" xmlns:xlink="http://www.w3.org/1999/xlink" xml:space="preserve" xmlns:serif="http://www.serif.com/" style="fill-rule:evenodd;clip-rule:evenodd;stroke-linejoin:round;stroke-miterlimit:2;"><g><g><g><g><path d="M10.742,3.874l-3.786,-3.785c-0.125,-0.121 -0.325,-0.118 -0.446,0.007c-0.118,0.123 -0.118,0.316 0,0.439l3.563,3.562l-3.563,3.563c-0.123,0.123 -0.123,0.323 0,0.446c0.123,0.123 0.323,0.123 0.446,0l3.786,-3.786c0.123,-0.123 0.123,-0.322 0,-0.446Z" style="fill:#07294d;fill-rule:nonzero;"/></g></g></g><path d="M10.183,3.823c0.071,0 0.129,0.124 0.129,0.276c0,0.153 -0.058,0.276 -0.129,0.276l-10.055,0c-0.071,0 -0.128,-0.123 -0.128,-0.276c0,-0.152 0.057,-0.276 0.128,-0.276l10.055,0Z" style="fill:#07294d;"/></g></svg>