<?xml version="1.0" encoding="UTF-8" standalone="no"?><!DOCTYPE svg PUBLIC "-//W3C//DTD SVG 1.1//EN" "http://www.w3.org/Graphics/SVG/1.1/DTD/svg11.dtd"><svg width="100%" height="100%" viewBox="0 0 14 21" version="1.1" xmlns="http://www.w3.org/2000/svg" xmlns:xlink="http://www.w3.org/1999/xlink" xml:space="preserve" xmlns:serif="http://www.serif.com/" style="fill-rule:evenodd;clip-rule:evenodd;stroke-linejoin:round;stroke-miterlimit:2;"><g><g><g><path d="M6.75,0c-3.722,0 -6.75,3.028 -6.75,6.75c0,1.117 0.279,2.225 0.81,3.208l5.571,10.074c0.074,0.135 0.215,0.218 0.369,0.218c0.154,0 0.295,-0.083 0.369,-0.218l5.573,-10.078c0.529,-0.979 0.808,-2.087 0.808,-3.204c0,-3.722 -3.028,-6.75 -6.75,-6.75Zm0,10.125c-1.861,0 -3.375,-1.514 -3.375,-3.375c0,-1.861 1.514,-3.375 3.375,-3.375c1.861,0 3.375,1.514 3.375,3.375c0,1.861 -1.514,3.375 -3.375,3.375Z" style="fill:#ffc600;"/></g></g></g></svg>