<?xml version="1.0" encoding="UTF-8" standalone="no"?><!DOCTYPE svg PUBLIC "-//W3C//DTD SVG 1.1//EN" "http://www.w3.org/Graphics/SVG/1.1/DTD/svg11.dtd"><svg width="100%" height="100%" viewBox="0 0 161 26" version="1.1" xmlns="http://www.w3.org/2000/svg" xmlns:xlink="http://www.w3.org/1999/xlink" xml:space="preserve" xmlns:serif="http://www.serif.com/" style="fill-rule:evenodd;clip-rule:evenodd;stroke-linejoin:round;stroke-miterlimit:2;"><path d="M13.606,0l4.205,8.519l9.401,1.367l-6.803,6.631l1.606,9.364l-8.409,-4.421l-8.409,4.421l1.606,-9.364l-6.803,-6.631l9.402,-1.367l4.204,-8.519Z" style="fill:#ffc500;"/><path d="M13.606,0l4.205,8.519l9.401,1.367l-6.803,6.631l1.606,9.364l-8.409,-4.421l-8.409,4.421l1.606,-9.364l-6.803,-6.631l9.402,-1.367l4.204,-8.519Z" style="fill:#ffc500;"/><path d="M46.819,0l4.204,8.519l9.402,1.367l-6.803,6.631l1.606,9.364l-8.409,-4.421l-8.409,4.421l1.606,-9.364l-6.804,-6.631l9.402,-1.367l4.205,-8.519Z" style="fill:#ffc500;"/><path d="M46.819,0l4.204,8.519l9.402,1.367l-6.803,6.631l1.606,9.364l-8.409,-4.421l-8.409,4.421l1.606,-9.364l-6.804,-6.631l9.402,-1.367l4.205,-8.519Z" style="fill:#ffc500;"/><path d="M80.031,0l4.205,8.519l9.401,1.367l-6.803,6.631l1.606,9.364l-8.409,-4.421l-8.409,4.421l1.606,-9.364l-6.803,-6.631l9.402,-1.367l4.204,-8.519Z" style="fill:#ffc500;"/><path d="M80.031,0l4.205,8.519l9.401,1.367l-6.803,6.631l1.606,9.364l-8.409,-4.421l-8.409,4.421l1.606,-9.364l-6.803,-6.631l9.402,-1.367l4.204,-8.519Z" style="fill:#ffc500;"/><path d="M113.244,0l4.204,8.519l9.402,1.367l-6.803,6.631l1.606,9.364l-8.409,-4.421l-8.41,4.421l1.606,-9.364l-6.803,-6.631l9.402,-1.367l4.205,-8.519Z" style="fill:#ffc500;"/><path d="M113.244,0l4.204,8.519l9.402,1.367l-6.803,6.631l1.606,9.364l-8.409,-4.421l-8.41,4.421l1.606,-9.364l-6.803,-6.631l9.402,-1.367l4.205,-8.519Z" style="fill:#ffc500;"/><path d="M146.456,0l4.205,8.519l9.401,1.367l-6.803,6.631l1.606,9.364l-8.409,-4.421l-8.409,4.421l1.606,-9.364l-6.803,-6.631l9.401,-1.367l4.205,-8.519Z" style="fill:#ffc500;"/><path d="M146.456,0l4.205,8.519l9.401,1.367l-6.803,6.631l1.606,9.364l-8.409,-4.421l-8.409,4.421l1.606,-9.364l-6.803,-6.631l9.401,-1.367l4.205,-8.519Z" style="fill:#ffc500;"/></svg>