<?xml version="1.0" encoding="UTF-8" standalone="no"?><!DOCTYPE svg PUBLIC "-//W3C//DTD SVG 1.1//EN" "http://www.w3.org/Graphics/SVG/1.1/DTD/svg11.dtd"><svg width="100%" height="100%" viewBox="0 0 33 33" version="1.1" xmlns="http://www.w3.org/2000/svg" xmlns:xlink="http://www.w3.org/1999/xlink" xml:space="preserve" xmlns:serif="http://www.serif.com/" style="fill-rule:evenodd;clip-rule:evenodd;stroke-linejoin:round;stroke-miterlimit:2;"><g><circle cx="16.459" cy="16.459" r="16.459" style="fill:#fff;"/><g><g><path d="M20.073,8.394l-7.228,0c-2.454,0 -4.451,1.997 -4.451,4.451l0,7.228c0,2.454 1.997,4.451 4.451,4.451l7.228,0c2.454,0 4.451,-1.997 4.451,-4.451l0,-7.228c0,-2.454 -1.997,-4.451 -4.451,-4.451Zm3.02,11.679c0,1.665 -1.355,3.02 -3.02,3.02l-7.228,0c-1.665,0 -3.02,-1.355 -3.02,-3.02l0,-7.228c0,-1.665 1.355,-3.02 3.02,-3.02l7.228,0c1.665,0 3.02,1.355 3.02,3.02l0,7.228l0,0Z" style="fill:#07294d;fill-rule:nonzero;"/><path d="M16.459,12.303c-2.292,0 -4.156,1.864 -4.156,4.156c0,2.292 1.864,4.156 4.156,4.156c2.292,0 4.156,-1.864 4.156,-4.156c0,-2.292 -1.864,-4.156 -4.156,-4.156Zm0,6.881c-1.503,0 -2.725,-1.222 -2.725,-2.725c0,-1.503 1.222,-2.725 2.725,-2.725c1.503,0 2.725,1.222 2.725,2.725c0,1.503 -1.222,2.725 -2.725,2.725Z" style="fill:#07294d;fill-rule:nonzero;"/><path d="M20.79,11.089c-0.276,0 -0.547,0.112 -0.742,0.307c-0.195,0.195 -0.308,0.466 -0.308,0.743c0,0.276 0.113,0.546 0.308,0.742c0.195,0.195 0.466,0.307 0.742,0.307c0.276,0 0.546,-0.112 0.742,-0.307c0.196,-0.196 0.307,-0.467 0.307,-0.742c0,-0.277 -0.111,-0.548 -0.307,-0.743c-0.195,-0.195 -0.466,-0.307 -0.742,-0.307Z" style="fill:#07294d;fill-rule:nonzero;"/></g></g></g></svg>