<?xml version="1.0" encoding="UTF-8" standalone="no"?><!DOCTYPE svg PUBLIC "-//W3C//DTD SVG 1.1//EN" "http://www.w3.org/Graphics/SVG/1.1/DTD/svg11.dtd"><svg width="100%" height="100%" viewBox="0 0 33 33" version="1.1" xmlns="http://www.w3.org/2000/svg" xmlns:xlink="http://www.w3.org/1999/xlink" xml:space="preserve" xmlns:serif="http://www.serif.com/" style="fill-rule:evenodd;clip-rule:evenodd;stroke-linejoin:round;stroke-miterlimit:2;"><g><circle cx="16.459" cy="16.459" r="16.459" style="fill:#fff;"/><g><path d="M24.371,10.879c-0.588,0.258 -1.215,0.429 -1.869,0.512c0.672,-0.401 1.186,-1.032 1.427,-1.793c-0.627,0.374 -1.319,0.638 -2.057,0.785c-0.596,-0.633 -1.444,-1.026 -2.37,-1.026c-1.796,0 -3.242,1.458 -3.242,3.245c0,0.257 0.022,0.504 0.075,0.74c-2.697,-0.132 -5.083,-1.425 -6.686,-3.394c-0.28,0.486 -0.444,1.042 -0.444,1.64c0,1.124 0.578,2.12 1.441,2.696c-0.522,-0.01 -1.033,-0.161 -1.466,-0.399l0,0.035c0,1.577 1.124,2.886 2.599,3.188c-0.264,0.072 -0.552,0.107 -0.851,0.107c-0.207,0 -0.417,-0.012 -0.614,-0.056c0.421,1.285 1.613,2.229 3.032,2.26c-1.104,0.863 -2.506,1.384 -4.023,1.384c-0.266,0 -0.521,-0.012 -0.776,-0.045c1.437,0.927 3.14,1.456 4.977,1.456c5.969,0 9.233,-4.945 9.233,-9.231c0,-0.144 -0.005,-0.282 -0.012,-0.42c0.644,-0.457 1.185,-1.027 1.626,-1.684Z" style="fill:#07294d;fill-rule:nonzero;"/></g></g></svg>