<?xml version="1.0" encoding="UTF-8" standalone="no"?><!DOCTYPE svg PUBLIC "-//W3C//DTD SVG 1.1//EN" "http://www.w3.org/Graphics/SVG/1.1/DTD/svg11.dtd"><svg width="100%" height="100%" viewBox="0 0 33 33" version="1.1" xmlns="http://www.w3.org/2000/svg" xmlns:xlink="http://www.w3.org/1999/xlink" xml:space="preserve" xmlns:serif="http://www.serif.com/" style="fill-rule:evenodd;clip-rule:evenodd;stroke-linejoin:round;stroke-miterlimit:2;"><g><circle cx="16.459" cy="16.459" r="16.459" style="fill:#fff;"/><g><path d="M20.01,9.359l-1.842,-0.003c-2.07,0 -3.407,1.372 -3.407,3.496l0,1.612l-1.853,0c-0.16,0 -0.289,0.13 -0.289,0.29l0,2.335c0,0.16 0.129,0.29 0.289,0.29l1.853,0l0,5.894c0,0.16 0.129,0.289 0.289,0.289l2.417,0c0.16,0 0.29,-0.129 0.29,-0.289l0,-5.894l2.166,0c0.16,0 0.289,-0.13 0.289,-0.29l0.001,-2.335c0,-0.077 -0.031,-0.151 -0.085,-0.205c-0.054,-0.054 -0.128,-0.085 -0.205,-0.085l-2.166,0l0,-1.367c0,-0.656 0.156,-0.99 1.012,-0.99l1.241,0c0.16,0 0.289,-0.13 0.289,-0.29l0,-2.169c0,-0.16 -0.129,-0.289 -0.289,-0.289Z" style="fill:#07294d;fill-rule:nonzero;"/></g></g></svg>