<?xml version="1.0" encoding="UTF-8" standalone="no"?><!DOCTYPE svg PUBLIC "-//W3C//DTD SVG 1.1//EN" "http://www.w3.org/Graphics/SVG/1.1/DTD/svg11.dtd"><svg width="100%" height="100%" viewBox="0 0 64 61" version="1.1" xmlns="http://www.w3.org/2000/svg" xmlns:xlink="http://www.w3.org/1999/xlink" xml:space="preserve" xmlns:serif="http://www.serif.com/" style="fill-rule:evenodd;clip-rule:evenodd;stroke-linejoin:round;stroke-miterlimit:2;"><g><g><circle cx="22.057" cy="25.181" r="22.057" style="fill:#fff;"/><circle cx="51.385" cy="47.238" r="12.348" style="fill:#fff;"/><path d="M60.889,49.022l0,-5.362l-5.719,0l0,-3.575l-1.907,0l0,-2.979l1.907,0l0,-5.362l-14.257,0l0,1.787l12.469,0l0,1.788l-36.981,0l0,1.787l35.075,0l0,2.979l-38.905,0c-0.821,0 -1.49,-0.668 -1.49,-1.489c0,-0.822 0.669,-1.49 1.49,-1.49l2.043,0l0,-1.787l-2.043,0c-1.807,0 -3.277,1.47 -3.277,3.277c0,1.807 1.47,3.276 3.277,3.276l40.811,0l0,1.788l-30.802,0l0,1.787l36.522,0l0,1.787l-50.463,0c-2.793,0 -5.064,2.272 -5.064,5.065c0,2.792 2.271,5.064 5.064,5.064l42.096,0l0,-1.788l-42.096,0c-1.807,0 -3.277,-1.469 -3.277,-3.276c0,-1.807 1.47,-3.277 3.277,-3.277l48.556,0l0,2.979l-39.619,0l0,1.787l39.619,0l0,1.787l-4.672,0l0,1.788l6.579,0l0,1.787l-50.463,0c-3.778,0 -6.852,-3.073 -6.852,-6.851c0,-3.778 3.074,-6.852 6.852,-6.852l12.154,0l0,-1.787l-8.222,0c-2.792,0 -5.064,-2.272 -5.064,-5.064c0,-2.793 2.272,-5.065 5.064,-5.065l26.555,0l0,-1.787l-26.555,0c-3.778,0 -6.851,3.074 -6.851,6.852c0,2.018 0.878,3.836 2.271,5.091c-4.462,0.332 -7.991,4.066 -7.991,8.612c0,4.763 3.875,8.639 8.639,8.639l52.25,0l0,-5.363l-1.906,0l0,-6.553l1.906,0Z" style="fill:#07294e;fill-rule:nonzero;"/><rect x="14.001" y="52.001" width="1.787" height="1.787" style="fill:#07294e;fill-rule:nonzero;"/><path d="M16.444,26.562l0.398,0.266c0.155,0.103 3.911,2.533 13.603,2.533c9.691,0 13.447,-2.43 13.603,-2.533l0.398,-0.266l0,-15.046l5.362,-1.787l0,8.437c-1.374,0.39 -2.384,1.655 -2.384,3.152l0,4.468l6.554,0l0,-4.468c0,-1.497 -1.009,-2.762 -2.383,-3.152l0,-9.033l3.124,-1.042l-9.386,-3.128l-0.565,1.695l4.299,1.433l-18.622,6.208l-18.623,-6.208l18.623,-6.207l12.627,4.209l0.566,-1.695l-13.193,-4.398l-24.275,8.091l10.274,3.425l0,15.046Zm35.747,-5.244l0,2.681l-2.979,0l0,-2.681c0,-0.821 0.668,-1.49 1.489,-1.49c0.822,0 1.49,0.669 1.49,1.49Zm-33.96,-9.206l12.214,4.071l12.213,-4.071l0,7.001l-2.204,0l0,1.788l2.204,0l0,1.787l-3.872,0l0,1.788l3.872,0l0,1.077c-1.152,0.561 -4.857,2.021 -12.213,2.021c-7.362,0 -11.068,-1.462 -12.214,-2.021l0,-13.441Z" style="fill:#07294e;fill-rule:nonzero;"/><rect x="10.426" y="52.001" width="1.787" height="1.787" style="fill:#07294e;fill-rule:nonzero;"/><rect x="35.211" y="22.688" width="1.787" height="1.787" style="fill:#07294e;fill-rule:nonzero;"/></g></g></svg>