<?xml version="1.0" encoding="UTF-8" standalone="no"?><!DOCTYPE svg PUBLIC "-//W3C//DTD SVG 1.1//EN" "http://www.w3.org/Graphics/SVG/1.1/DTD/svg11.dtd"><svg width="100%" height="100%" viewBox="0 0 64 60" version="1.1" xmlns="http://www.w3.org/2000/svg" xmlns:xlink="http://www.w3.org/1999/xlink" xml:space="preserve" xmlns:serif="http://www.serif.com/" style="fill-rule:evenodd;clip-rule:evenodd;stroke-linejoin:round;stroke-miterlimit:2;"><circle cx="22.057" cy="25.538" r="22.057" style="fill:#fff;"/><circle cx="51.385" cy="47.594" r="12.348" style="fill:#fff;"/><path d="M52.608,50.507l-2.855,0l0,-2.271c0,-1.239 -1.008,-2.248 -2.248,-2.248l-7.719,0c-1.24,0 -2.248,1.009 -2.248,2.248l0,2.271l-2.606,0l0,-7.081l14.022,0c2.301,0 4.173,-1.872 4.173,-4.173c0,-2.301 -1.872,-4.174 -4.173,-4.174l-23.899,0c-1.391,0 -2.622,0.886 -3.064,2.205c-0.008,0.023 -0.015,0.047 -0.021,0.071l-0.735,2.751c-1.356,-1.906 -2.157,-4.247 -2.157,-6.775c0,-5.479 3.757,-10.078 8.785,-11.276l0.4,1.297c0.532,1.726 2.127,2.838 3.846,2.838c0.121,0 0.241,-0.007 0.362,-0.018l1.185,3.842c0.291,0.942 0.931,1.715 1.802,2.176c0.54,0.285 1.128,0.43 1.721,0.43c0.365,0 0.733,-0.055 1.092,-0.166l3.086,-0.952c1.944,-0.599 3.039,-2.669 2.439,-4.614l-1.184,-3.842c1.626,-0.903 2.459,-2.854 1.889,-4.701l-2.636,-8.55c-0.317,-1.027 -1.014,-1.869 -1.964,-2.371c-0.95,-0.502 -2.039,-0.605 -3.066,-0.288l-1.707,0.526l-3.786,-6.053c-0.63,-1.007 -1.717,-1.609 -2.906,-1.609l-2.644,0c-1.264,0 -2.385,0.66 -2.997,1.766c-0.613,1.106 -0.579,2.407 0.092,3.479l3.57,5.706c-0.209,0.237 -0.392,0.5 -0.543,0.786c-0.502,0.95 -0.604,2.039 -0.288,3.065l0.001,0.001c-9.126,2.141 -15.984,10.945 -15.984,21.451c0,6.67 2.766,12.653 7.12,16.682c-0.378,0.679 -0.595,1.459 -0.595,2.289c0,2.602 2.117,4.719 4.719,4.719l31.721,0c2.602,0 4.719,-2.117 4.719,-4.719c0,-2.602 -2.117,-4.718 -4.719,-4.718Zm-12.722,-2.17l7.519,0l0,2.17l-7.519,0l0,-2.17Zm10.893,-9.084c0,1.006 -0.819,1.825 -1.825,1.825l-14.023,0l0,-2.766c0,-0.307 -0.043,-0.603 -0.123,-0.884l14.146,0c1.006,0 1.825,0.819 1.825,1.825Zm-26.552,-1.25c0.129,-0.345 0.458,-0.575 0.828,-0.575l6.644,0c0.487,0 0.884,0.397 0.884,0.884l0,12.195l-11.693,0l3.337,-12.504Zm17.446,-20.861l-11.74,3.657l-1.505,-4.88l11.74,-3.657l1.505,4.88Zm-11.166,5.518l-0.159,-0.514l11.74,-3.658l0.169,0.549c0.272,0.882 -0.224,1.822 -1.107,2.094l-8.549,2.636c-0.428,0.132 -0.881,0.089 -1.276,-0.12c-0.396,-0.209 -0.686,-0.56 -0.818,-0.987Zm10.158,6.599l-3.086,0.951c-0.343,0.106 -0.706,0.072 -1.023,-0.096c-0.317,-0.168 -0.55,-0.449 -0.655,-0.791l-1.159,-3.759l5.651,-1.742l1.159,3.758c0.218,0.707 -0.18,1.46 -0.887,1.679Zm-3.138,-19.879c0.426,-0.131 0.88,-0.089 1.276,0.12c0.554,0.265 0.812,0.849 0.95,1.415l-11.74,3.657c-0.206,-0.555 -0.339,-1.196 -0.023,-1.738c0.21,-0.395 0.56,-0.685 0.987,-0.817l8.55,-2.637Zm-12.678,-6.476c0.093,-0.167 0.37,-0.555 0.944,-0.555l2.644,0c0.374,0 0.715,0.189 0.914,0.506l3.455,5.524l-4.35,1.341l-3.578,-5.721c-0.304,-0.486 -0.122,-0.927 -0.029,-1.095Zm-12.857,33.35c0,-9.458 6.162,-17.371 14.328,-19.201l0.848,2.75c-5.986,1.5 -10.438,6.996 -10.438,13.528c0,3.702 1.431,7.07 3.76,9.568l-2.203,8.251c-3.849,-3.598 -6.295,-8.94 -6.295,-14.896Zm40.616,21.341l-31.721,0c-1.307,0 -2.37,-1.063 -2.37,-2.37c0,-1.307 1.063,-2.37 2.37,-2.37l31.721,0c1.307,0 2.371,1.063 2.371,2.37c0,1.307 -1.064,2.37 -2.371,2.37Z" style="fill-rule:nonzero;"/><path d="M25.278,46.252c-0.09,0 -0.183,-0.011 -0.275,-0.033c-0.63,-0.151 -1.019,-0.785 -0.867,-1.416l0.38,-1.584c0.151,-0.63 0.785,-1.019 1.416,-0.868c0.63,0.152 1.019,0.786 0.867,1.416l-0.38,1.584c-0.129,0.539 -0.61,0.901 -1.141,0.901Z" style="fill-rule:nonzero;"/><path d="M26.451,41.367c-0.091,0 -0.183,-0.01 -0.275,-0.032c-0.631,-0.151 -1.019,-0.785 -0.868,-1.416l0.071,-0.297c0.152,-0.631 0.786,-1.019 1.416,-0.868c0.631,0.151 1.019,0.785 0.868,1.416l-0.071,0.297c-0.13,0.538 -0.611,0.9 -1.141,0.9Z" style="fill-rule:nonzero;"/><path d="M62.009,13.417c0,1.203 -0.975,2.178 -2.178,2.178c-1.202,0 -2.177,-0.975 -2.177,-2.178c0,-1.203 0.975,-2.178 2.177,-2.178c1.203,0 2.178,0.975 2.178,2.178Z" style="fill-rule:nonzero;"/><path d="M51.826,21.425c0,0.51 -0.413,0.923 -0.922,0.923c-0.51,0 -0.923,-0.413 -0.923,-0.923c0,-0.509 0.413,-0.922 0.923,-0.922c0.509,0 0.922,0.413 0.922,0.922Z" style="fill-rule:nonzero;"/><path d="M48.868,4.697l0.74,2.08c0.032,0.09 0.094,0.16 0.174,0.196l1.848,0.832c0.261,0.118 0.261,0.534 0,0.652l-1.848,0.833c-0.08,0.035 -0.142,0.106 -0.174,0.195l-0.74,2.08c-0.104,0.294 -0.474,0.294 -0.578,0l-0.74,-2.08c-0.032,-0.089 -0.095,-0.16 -0.174,-0.195l-1.848,-0.833c-0.261,-0.118 -0.261,-0.534 0,-0.652l1.848,-0.832c0.079,-0.036 0.142,-0.107 0.174,-0.196l0.74,-2.08c0.104,-0.294 0.474,-0.294 0.578,0Z" style="fill-rule:nonzero;"/><path d="M59.075,22.913l1.017,2.804c0.043,0.121 0.129,0.216 0.238,0.264l2.54,1.122c0.359,0.159 0.359,0.72 0,0.879l-2.54,1.122c-0.109,0.048 -0.195,0.143 -0.238,0.264l-1.017,2.804c-0.143,0.396 -0.651,0.396 -0.795,0l-1.017,-2.804c-0.043,-0.121 -0.129,-0.216 -0.238,-0.264l-2.54,-1.122c-0.359,-0.159 -0.359,-0.72 0,-0.879l2.54,-1.122c0.109,-0.048 0.195,-0.143 0.238,-0.264l1.017,-2.804c0.144,-0.396 0.652,-0.396 0.795,0Z" style="fill-rule:nonzero;"/></svg>