<?xml version="1.0" encoding="UTF-8" standalone="no"?><!DOCTYPE svg PUBLIC "-//W3C//DTD SVG 1.1//EN" "http://www.w3.org/Graphics/SVG/1.1/DTD/svg11.dtd"><svg width="100%" height="100%" viewBox="0 0 15 15" version="1.1" xmlns="http://www.w3.org/2000/svg" xmlns:xlink="http://www.w3.org/1999/xlink" xml:space="preserve" xmlns:serif="http://www.serif.com/" style="fill-rule:evenodd;clip-rule:evenodd;stroke-linejoin:round;stroke-miterlimit:2;"><g><circle cx="7.5" cy="7.5" r="7.5" style="fill:#ffc600;"/><g><g><g><g><path d="M11.173,7.314l-3.138,-3.139c-0.104,-0.1 -0.27,-0.097 -0.37,0.006c-0.098,0.102 -0.098,0.263 0,0.364l2.954,2.953l-2.954,2.954c-0.102,0.102 -0.102,0.268 0,0.37c0.102,0.102 0.268,0.102 0.37,0l3.138,-3.139c0.103,-0.102 0.103,-0.267 0,-0.369Z" style="fill:#07294d;fill-rule:nonzero;"/></g></g></g><path d="M10.729,7.271c0.048,0 0.088,0.103 0.088,0.229c0,0.126 -0.04,0.229 -0.088,0.229l-6.891,0c-0.049,0 -0.088,-0.103 -0.088,-0.229c0,-0.126 0.039,-0.229 0.088,-0.229l6.891,0Z" style="fill:#07294d;"/></g></g></svg>