<?xml version="1.0" encoding="UTF-8" standalone="no"?><!DOCTYPE svg PUBLIC "-//W3C//DTD SVG 1.1//EN" "http://www.w3.org/Graphics/SVG/1.1/DTD/svg11.dtd"><svg width="100%" height="100%" viewBox="0 0 19 19" version="1.1" xmlns="http://www.w3.org/2000/svg" xmlns:xlink="http://www.w3.org/1999/xlink" xml:space="preserve" xmlns:serif="http://www.serif.com/" style="fill-rule:evenodd;clip-rule:evenodd;stroke-linejoin:round;stroke-miterlimit:2;"><g><g><path d="M18.258,13.79l-2.622,-2.623c-0.936,-0.936 -2.528,-0.561 -2.903,0.656c-0.281,0.843 -1.217,1.311 -2.06,1.124c-1.873,-0.468 -4.402,-2.903 -4.87,-4.87c-0.281,-0.843 0.281,-1.779 1.124,-2.06c1.217,-0.375 1.592,-1.967 0.656,-2.903l-2.623,-2.622c-0.749,-0.656 -1.873,-0.656 -2.528,0l-1.779,1.779c-1.78,1.873 0.187,6.836 4.588,11.238c4.402,4.401 9.365,6.461 11.238,4.588l1.779,-1.779c0.656,-0.749 0.656,-1.873 0,-2.528Z" style="fill:#ffc600;fill-rule:nonzero;"/></g></g></svg>