<?xml version="1.0" encoding="UTF-8" standalone="no"?><!DOCTYPE svg PUBLIC "-//W3C//DTD SVG 1.1//EN" "http://www.w3.org/Graphics/SVG/1.1/DTD/svg11.dtd"><svg width="100%" height="100%" viewBox="0 0 12 10" version="1.1" xmlns="http://www.w3.org/2000/svg" xmlns:xlink="http://www.w3.org/1999/xlink" xml:space="preserve" xmlns:serif="http://www.serif.com/" style="fill-rule:evenodd;clip-rule:evenodd;stroke-linejoin:round;stroke-miterlimit:2;"><g><g><g><g><path d="M11.147,4.336l-4.237,-4.237c-0.141,-0.135 -0.364,-0.131 -0.5,0.009c-0.132,0.137 -0.132,0.354 0,0.49l3.988,3.988l-3.988,3.987c-0.137,0.138 -0.137,0.361 0,0.499c0.138,0.138 0.362,0.138 0.5,0l4.237,-4.237c0.137,-0.138 0.137,-0.361 0,-0.499Z" style="fill:#fff;fill-rule:nonzero;"/></g></g></g><path d="M10.533,4.279c0.073,0 0.132,0.138 0.132,0.309c0,0.17 -0.059,0.309 -0.132,0.309l-10.4,0c-0.074,0 -0.133,-0.139 -0.133,-0.309c0,-0.171 0.059,-0.309 0.133,-0.309l10.4,0Z" style="fill:#fff;"/></g></svg>